<svg width="301" height="295" fill="none" xmlns="http://www.w3.org/2000/svg"><path d="M150.5.794a150.422 150.422 0 00-47.569 293.124c7.521 1.317 10.341-3.195 10.341-7.144 0-3.573-.188-15.418-.188-28.015-37.792 6.956-47.57-9.213-50.578-17.674a54.694 54.694 0 00-15.417-21.247c-5.265-2.82-12.786-9.777-.189-9.964a30.098 30.098 0 0123.127 15.417 32.148 32.148 0 0043.809 12.409 31.642 31.642 0 019.589-20.117c-33.468-3.761-68.44-16.735-68.44-74.269a58.54 58.54 0 0115.418-40.424 54.056 54.056 0 011.504-39.86s12.597-3.95 41.365 15.417a141.803 141.803 0 0175.208 0c28.767-19.554 41.365-15.418 41.365-15.418a54.052 54.052 0 011.504 39.861 58.2 58.2 0 0115.418 40.424c0 57.722-35.161 70.508-68.628 74.269a35.61 35.61 0 0110.153 27.827c0 20.118-.188 36.287-.188 41.364 0 3.949 2.82 8.649 10.341 7.145a150.5 150.5 0 00100.499-166.922A150.495 150.495 0 00150.5.794z" fill="#0D1821"/></svg>