<svg width="173" height="173" fill="none" xmlns="http://www.w3.org/2000/svg"><path d="M132.558 30.093a10.35 10.35 0 10-.002 20.7 10.35 10.35 0 00.002-20.7zm39.675 20.872a65.485 65.485 0 00-3.968-20.959A42.602 42.602 0 00158.26 14.74a40.536 40.536 0 00-15.266-9.919A62.966 62.966 0 00122.035.768C112.893.25 109.96.25 86.5.25c-23.46 0-26.392 0-35.535.517a62.963 62.963 0 00-20.959 4.054A41.229 41.229 0 0014.74 14.74a40.537 40.537 0 00-9.919 15.266A62.963 62.963 0 00.768 50.965C.25 60.107.25 63.04.25 86.5c0 23.46 0 26.393.517 35.535a62.966 62.966 0 004.054 20.959 40.536 40.536 0 009.919 15.266 41.231 41.231 0 0015.266 9.919 62.986 62.986 0 0020.959 4.054c9.142.517 12.075.517 35.535.517 23.46 0 26.393 0 35.535-.517a62.99 62.99 0 0020.959-4.054 40.537 40.537 0 0015.266-9.919 41.836 41.836 0 0010.005-15.266 65.49 65.49 0 003.968-20.959c0-9.142.517-12.075.517-35.535 0-23.46 0-26.392-.517-35.535zM156.707 121a48.375 48.375 0 01-2.932 16.043 26.385 26.385 0 01-6.469 9.918 27.505 27.505 0 01-9.919 6.469 48.391 48.391 0 01-16.042 2.933c-8.625.431-11.816.517-34.5.517-22.684 0-25.875 0-34.5-.517a49.423 49.423 0 01-16.733-2.588 28.207 28.207 0 01-9.487-6.469 25.874 25.874 0 01-6.383-9.919A47.776 47.776 0 0116.293 121c0-8.625-.517-11.816-.517-34.5 0-22.684 0-25.875.518-34.5a47.781 47.781 0 013.018-16.388 25.875 25.875 0 016.814-9.487 27.084 27.084 0 019.487-6.9A49.422 49.422 0 0152 16.292c8.625 0 11.816-.517 34.5-.517 22.684 0 25.875 0 34.5.518a48.394 48.394 0 0116.043 2.932 26.39 26.39 0 0110.263 6.9 26.389 26.389 0 016.469 9.487A48.375 48.375 0 01156.707 52c.432 8.625.518 11.816.518 34.5 0 22.684-.086 25.875-.518 34.5zM86.5 42.254A44.247 44.247 0 10130.832 86.5a44.148 44.148 0 00-12.964-31.343A44.151 44.151 0 0086.5 42.254zm0 72.967a28.72 28.72 0 11-.002-57.441 28.72 28.72 0 01.002 57.441z" fill="#0D1821"/></svg>