<svg width="155" height="155" fill="none" xmlns="http://www.w3.org/2000/svg"><path fill="#0D1821" d="M0 0h155v155H0z"/><path d="M132.202 12.917H22.798a9.364 9.364 0 00-9.494 9.235v110.696a9.365 9.365 0 009.494 9.235h109.404a9.366 9.366 0 009.494-9.235V22.152a9.372 9.372 0 00-2.834-6.584 9.375 9.375 0 00-6.66-2.651zM52.248 121.029H32.873V62.904h19.375v58.125zM42.56 54.767a10.075 10.075 0 010-20.15 10.14 10.14 0 110 20.15zm79.567 66.262h-19.375V89.835c0-7.814-2.777-12.916-9.817-12.916a10.656 10.656 0 00-9.945 7.04 12.916 12.916 0 00-.646 4.714v32.292H62.969V62.84h19.375v8.202a19.375 19.375 0 0117.502-9.688c12.917 0 22.281 8.331 22.281 26.221v33.454z" fill="#F2DD6E"/></svg>